# AST/ASF file generated using VICON BodyLanguage
# -----------------------------------------------
:version 1.10
:name VICON
:units
  mass 1.0
  length 0.45
  angle deg
:documentation
   .ast/.asf automatically generated from VICON data using
   VICON BodyBuilder and BodyLanguage model FoxedUp or BRILLIANT.MOD
:root
   order TX TY TZ RX RY RZ
   axis XYZ
   position 0 0 0  
   orientation 0 0 0 
:bonedata
  begin
     id 1 
     name lhipjoint
     direction 0.521689 -0.742065 0.420928 
     length 2.47002 
     axis 0 0 0  XYZ
  end
  begin
     id 2 
     name lfemur
     direction 0.34202 -0.939693 0  
     length 7.24654  
     axis 0 0 20  XYZ
    dof rx ry rz
    limits (-160.0 20.0)
           (-70.0 70.0)
           (-60.0 70.0)
  end
  begin
     id 3 
     name ltibia
     direction 0.34202 -0.939693 0   
     length 8.04849   
     axis 0 0 20   XYZ
    dof rx
    limits (-10.0 170.0)
  end
  begin
     id 4 
     name lfoot
     direction 0.0745411 -0.2048 0.975961   
     length 1.72367   
     axis -90 7.62852e-016 20   XYZ
    dof rx rz
    limits (-45.0 90.0)
           (-70.0 20.0)
  end
  begin
     id 5 
     name ltoes
     direction 1.53556e-011 -4.21901e-011 1   
     length 0.87311   
     axis -90 7.62852e-016 20   XYZ
    dof rx
    limits (-90.0 20.0)
  end
  begin
     id 6 
     name rhipjoint
     direction -0.52849 -0.738415 0.418857   
     length 2.48223  
     axis 0 0 0  XYZ 
  end
  begin
     id 7 
     name rfemur
     direction -0.34202 -0.939693 0   
     length 7.15571   
     axis 0 0 -20   XYZ
    dof rx ry rz
    limits (-160.0 20.0)
           (-70.0 70.0)
           (-70.0 60.0)
  end
  begin
     id 8 
     name rtibia
     direction -0.34202 -0.939693 0   
     length 7.81659   
     axis 0 0 -20   XYZ
    dof rx
    limits (-10.0 170.0)
 end
 begin
     id 9 
     name rfoot
     direction -0.0917348 -0.252039 0.963359   
     length 1.84382  
     axis -90 -7.62852e-016 -20   XYZ
    dof rx rz
    limits (-45.0 90.0)
           (-20.0 70.0)
  end
  begin
     id 10 
     name rtoes
     direction -1.53551e-011 -4.21879e-011 1   
     length 0.927771   
     axis -90 -7.62852e-016 -20   XYZ
    dof rx
    limits (-90.0 20.0)
  end
  begin
     id 11 
     name lowerback
     direction 0.00583058 0.999822 0.0179296   
     length 2.1429   
     axis 0 0 0   XYZ
    dof rx ry rz
    limits (-20.0 45.0)
           (-30.0 30.0)
           (-30.0 30.0)
  end
  begin
     id 12 
     name upperback
     direction -0.0137999 0.999752 -0.0175071   
     length 2.14252   
     axis 0 0 0   XYZ
    dof rx ry rz
    limits (-20.0 45.0)
           (-30.0 30.0)
           (-30.0 30.0)
  end
  begin
     id 13 
     name thorax
     direction -0.0158036 0.99955 -0.0254909   
     length 2.1383   
     axis 0 0 0   XYZ
    dof rx ry rz
    limits (-20.0 45.0)
           (-30.0 30.0)
           (-30.0 30.0)
  end
  begin
     id 14 
     name lowerneck
     direction -0.0101179 0.999403 -0.0330262   
     length 1.65808   
     axis 0 0 0   XYZ
    dof rx ry rz
    limits (-20.0 45.0)
           (-30.0 30.0)
           (-30.0 30.0)
  end
  begin
     id 15 
     name upperneck
     direction 0.0497734 0.995978 -0.074501   
     length 1.5897   
     axis 0 0 0   XYZ
    dof rx ry rz
    limits (-20.0 45.0)
           (-30.0 30.0)
           (-30.0 30.0)
  end
  begin
     id 16
     name head
     direction 0.0189524 0.999519 -0.0245438  
     length 1.74024  
     axis 0 0 0   XYZ
    dof rx ry rz
    limits (-20.0 45.0)
           (-30.0 30.0)
           (-30.0 30.0)
  end
  begin
     id 17 
     name lclavicle
     direction 0.945604 0.324422 0.0241537  
     length 3.59089  
     axis 0 0 0   XYZ
    dof ry rz
    limits (-20.0 10.0)
           (0.0 20.0)
  end
  begin
     id 18 
     name lhumerus
     direction 1 -4.48964e-011 -2.63524e-027   
     length 5.2391   
     axis 180 -30 -90   XYZ
    dof rx ry rz
    limits (-60.0 90.0)
           (-90.0 90.0)
           (-90.0 90.0)
  end
  begin
     id 19
     name lradius
     direction 1 -4.48969e-011 3.86978e-028   
     length 3.31467   
     axis 180 -30 -90   XYZ
    dof rx
    limits (-10.0 170.0)
  end
  begin
     id 20
     name lwrist
     direction 1 -4.48963e-011 7.20928e-028   
     length 1.65734   
     axis -5.52449e-016 90 90   XYZ
    dof ry
    limits (-180.0 0.0)
 end
  begin
     id 21 
     name lhand
     direction 1 -4.48964e-011 1.44186e-027   
     length 0.9659   
     axis -9.20027e-016 90 90   XYZ
    dof rx rz
    limits (-90.0 90.0)
           (-45.0 45.0)
  end
  begin
     id 22 
     name lfingers
     direction 1 -4.48965e-011 2.88371e-027   
     length 0.778733   
     axis -1.84005e-015 90 90   XYZ
    dof rx
    limits (0.0 90.0)
  end
  begin
     id 23
     name lthumb
     direction 0.707107 -6.34931e-011 0.707107   
     length 1.11811   
     axis -90 45 2.85299e-015   XYZ
    dof rx rz
    limits (-45.0 45.0)
           (-45.0 45.0)
  end
  begin
     id 24 
     name rclavicle
     direction -0.923762 0.370785 0.0958234   
     length 3.54196  
     axis 0 0 0   XYZ 
    dof ry rz
    limits (-10.0 20.0)
           (-20.0 0.0)
  end
  begin
     id 25 
     name rhumerus
     direction -1 -4.48966e-011 1.18702e-017  
     length 5.30252   
     axis 180 30 90   XYZ
    dof rx ry rz
    limits (-90.0 60.0)
           (-90.0 90.0)
           (-90.0 90.0)
  end
  begin
     id 26 
     name rradius
     direction -1 -4.48966e-011 4.46736e-027   
     length 3.67875   
     axis 180 30 90   XYZ
    dof rx
    limits (-10.0 170.0)
  end
  begin
     id 27 
     name rwrist
     direction -1 -4.48966e-011 7.20928e-028   
     length 1.83937   
     axis -5.52449e-016 -90 -90   XYZ
    dof ry
    limits (-180.0 0.0)
  end
  begin
     id 28
     name rhand
     direction -1 -4.48973e-011 1.44186e-027   
     length 0.594811   
     axis -9.20027e-016 -90 -90   XYZ
    dof rx rz
    limits (-90.0 90.0)
           (-45.0 45.0)
  end
  begin
     id 29
     name rfingers
     direction -1 -4.48963e-011 2.88371e-027   
     length 0.479552   
     axis -1.84005e-015 -90 -90   XYZ
    dof rx
    limits (0.0 90.0)
  end
  begin
     id 30
     name rthumb
     direction -0.707107 -6.34932e-011 0.707107   
     length 0.688544   
     axis -90 -45 -2.85299e-015   XYZ
    dof rx rz
    limits (-45.0 45.0)
           (-45.0 45.0)
  end
:hierarchy
  begin
    root lhipjoint rhipjoint lowerback
    lhipjoint lfemur
    lfemur ltibia
    ltibia lfoot
    lfoot ltoes
    rhipjoint rfemur
    rfemur rtibia
    rtibia rfoot
    rfoot rtoes
    lowerback upperback
    upperback thorax
    thorax lowerneck lclavicle rclavicle
    lowerneck upperneck
    upperneck head
    lclavicle lhumerus
    lhumerus lradius
    lradius lwrist
    lwrist lhand lthumb
    lhand lfingers
    rclavicle rhumerus
    rhumerus rradius
    rradius rwrist
    rwrist rhand rthumb
    rhand rfingers
  end

#!OML:ASF E:\acrobat2\Project_11_07_03\Capture day 1\Session 1\Acrobat.ASF
:FULLY-SPECIFIED
:DEGREES
742
root 12.9359 23.0793 3.85774 -319.643 -4.02743 -180.809
lowerback 35.3529 1.60709 4.90951
upperback 14.1594 0.906496 0.944223
thorax -2.08712 -1.07541 -1.8172
lowerneck -0.181044 -0.253753 -4.45141
upperneck -32.3114 -3.08689 4.54212
head -10.1144 -1.87671 2.74867
rclavicle -2.62396e-014 -5.06901e-015
rhumerus -2.13863 25.5066 -69.0761
rradius 55.9858
rwrist -35.1418
rhand 21.9413 -31.4216
rfingers 7.12502
rthumb 46.3391 -414.374
lclavicle -2.62396e-014 -5.06901e-015
lhumerus 20.0877 -39.4493 69.3028
lradius 39.7593
lwrist 40.6872
lhand 14.6923 -22.801
lfingers 7.12502
lthumb 39.5619 2.55568
rfemur -80.3954 -7.30114 16.5229
rtibia 56.7155
rfoot 178.612 -7.51064
rtoes -7.48197
lfemur 103.659 179.644 162.909
ltibia 62.7435
lfoot 191.627 5.22507
ltoes 25.2665
743
root 12.9379 23.233 3.77636 -324.509 -4.64066 -180.132
lowerback 36.0483 1.70266 4.14667
upperback 14.2061 0.889982 0.686317
thorax -2.3052 -1.0909 -1.67718
lowerneck -0.354925 -0.255924 -4.06141
upperneck -32.4665 -3.02593 4.42342
head -10.1505 -1.81634 2.62318
rclavicle -3.18055e-015 -8.94531e-015
rhumerus -3.65329 24.5704 -70.4836
rradius 58.1856
rwrist -38.5654
rhand 21.1494 -31.7239
rfingers 7.12502
rthumb 45.6043 -414.981
lclavicle -3.18055e-015 -8.94531e-015
lhumerus 17.9232 -37.8983 70.8874
lradius 42.0296
lwrist 42.7608
lhand 15.3038 -22.5109
lfingers 7.12502
lthumb 40.1375 2.67356
rfemur -81.3633 -7.1693 16.422
rtibia 55.1417
rfoot 177.957 -7.84686
rtoes -8.25515
lfemur 103.488 180.197 162.451
ltibia 61.7752
lfoot 190.373 5.90342
ltoes 26.2942
744
root 12.9425 23.3958 3.71274 -329.427 -5.12533 -179.392
lowerback 36.6901 1.80057 3.4049
upperback 14.1753 0.898487 0.420562
thorax -2.57977 -1.07476 -1.56564
lowerneck -0.419915 -0.320408 -3.69704
upperneck -32.7976 -3.07058 4.34839
head -10.2686 -1.79772 2.53269
rclavicle 9.54166e-015 -7.65321e-015
rhumerus -5.22962 23.5493 -71.6843
rradius 60.6767
rwrist -42.4126
rhand 19.69 -32.4152
rfingers 7.12502
rthumb 44.2462 -416.206
lclavicle 9.54166e-015 -7.65321e-015
lhumerus 15.9817 -36.6485 71.7849
lradius 45.0923
lwrist 45.1786
lhand 16.4932 -21.1883
lfingers 7.12502
lthumb 41.2552 3.64644
rfemur -82.3247 -7.02222 16.4256
rtibia 53.5368
rfoot 177.359 -8.13236
rtoes -9.03301
lfemur 103.438 180.621 161.992
ltibia 60.616
lfoot 189.025 6.7439
ltoes 27.2584
745
root 12.9485 23.5649 3.66889 -334.365 -5.37626 -178.775
lowerback 37.3816 1.84732 2.88611
upperback 13.9786 0.930213 0.191554
thorax -2.89725 -1.0246 -1.53183
lowerneck -0.351911 -0.372499 -3.25237
upperneck -33.2741 -3.12644 4.17852
head -10.473 -1.77518 2.40066
rclavicle -2.14687e-014 1.59028e-014
rhumerus -6.77985 22.8145 -72.6071
rradius 63.3495
rwrist -45.9314
rhand 17.7306 -33.3054
rfingers 7.12502
rthumb 42.4154 -417.755
lclavicle -2.14687e-014 1.59028e-014
lhumerus 14.3955 -36.0097 72.051
lradius 48.5719
lwrist 47.1211
lhand 18.0101 -19.2868
lfingers 7.12502
lthumb 42.677 5.07227
rfemur -83.258 -6.85076 16.7198
rtibia 51.9995
rfoot 176.762 -8.37089
rtoes -10.2611
lfemur 103.414 180.916 161.743
ltibia 59.3203
lfoot 187.632 7.7311
ltoes 27.9691
746
root 12.9545 23.7367 3.64798 -339.319 -5.40124 -178.338
lowerback 37.9403 1.8195 2.61825
upperback 13.8268 0.968844 0.0284219
thorax -3.25273 -0.952044 -1.57548
lowerneck -0.185564 -0.398425 -2.80266
upperneck -33.8139 -3.14529 3.96754
head -10.7266 -1.72413 2.25151
rclavicle 8.74653e-015 -8.15017e-015
rhumerus -8.24519 22.6578 -73.279
rradius 65.9793
rwrist -48.293
rhand 15.9603 -34.2648
rfingers 7.12502
rthumb 40.7548 -419.259
lclavicle 8.74653e-015 -8.15017e-015
lhumerus 13.2162 -35.869 71.9617
lradius 51.8561
lwrist 47.7949
lhand 19.7126 -17.373
lfingers 7.12502
lthumb 44.2673 6.40946
rfemur -84.1393 -6.71809 17.3079
rtibia 50.6257
rfoot 176.16 -8.53058
rtoes -11.3159
lfemur 103.372 181.151 161.735
ltibia 57.9623
lfoot 186.192 8.81751
ltoes 28.0718
747
root 12.9624 23.9101 3.65665 -344.246 -5.26862 -178.049
lowerback 38.3532 1.74702 2.50346
upperback 13.6614 1.02287 -0.0653358
thorax -3.56916 -0.856912 -1.63369
lowerneck 0.0557628 -0.391471 -2.41402
upperneck -34.3959 -3.10876 3.75034
head -11.0167 -1.63286 2.10604
rclavicle 1.27222e-014 1.07344e-014
rhumerus -9.51729 22.9788 -73.7257
rradius 68.2787
rwrist -48.9751
rhand 15.0443 -35.0923
rfingers 7.12502
rthumb 39.8934 -420.35
lclavicle 1.27222e-014 1.07344e-014
lhumerus 12.4871 -36.0426 71.8078
lradius 54.4044
lwrist 46.808
lhand 21.0717 -16.5142
lfingers 7.12502
lthumb 45.5321 6.77266
rfemur -85.0543 -6.62575 18.1229
rtibia 49.4396
rfoot 175.433 -8.56362
rtoes -12.4158
lfemur 103.271 181.383 161.918
ltibia 56.5871
lfoot 184.662 9.96321
ltoes 27.8398
748
root 12.9743 24.0843 3.6995 -349.011 -5.04992 -177.821
lowerback 38.3841 1.67262 2.39481
upperback 13.5212 1.09859 -0.110719
thorax -3.73518 -0.734275 -1.65546
lowerneck 0.31671 -0.358407 -2.15094
upperneck -34.9327 -2.9943 3.6076
head -11.2953 -1.49522 1.99937
rclavicle 3.97569e-015 3.57812e-015
rhumerus -10.5217 23.5255 -74.0077
rradius 70.1084
rwrist -48.1011
rhand 15.2963 -35.3144
rfingers 7.12502
rthumb 40.1305 -420.501
lclavicle 3.97569e-015 3.57812e-015
lhumerus 12.1766 -36.4135 71.6765
lradius 56.1227
lwrist 44.6057
lhand 21.9192 -16.9762
lfingers 7.12502
lthumb 46.3186 5.98445
rfemur -86.214 -6.56552 19.0665
rtibia 48.4059
rfoot 174.578 -8.41289
rtoes -13.4838
lfemur 102.953 181.622 162.188
ltibia 55.2406
lfoot 183.064 11.1446
ltoes 27.6162
749
root 12.9919 24.2563 3.78055 -353.513 -4.7842 -177.602
lowerback 37.9073 1.62787 2.19819
upperback 13.407 1.20195 -0.117819
thorax -3.71212 -0.580685 -1.60319
lowerneck 0.596641 -0.324704 -2.0258
upperneck -35.4458 -2.84657 3.54762
head -11.5688 -1.33104 1.94171
rclavicle -1.47101e-014 2.78299e-015
rhumerus -11.2579 24.0941 -74.1699
rradius 71.479
rwrist -46.2157
rhand 16.7595 -34.99
rfingers 7.12502
rthumb 41.5052 -419.744
lclavicle -1.47101e-014 2.78299e-015
lhumerus 12.1061 -36.8321 71.6573
lradius 57.2035
lwrist 42.0737
lhand 22.1734 -18.2764
lfingers 7.12502
lthumb 46.5541 4.5838
rfemur -87.7835 -6.52536 20.0882
rtibia 47.5683
rfoot 173.635 -8.0555
rtoes -14.5871
lfemur 102.302 181.849 162.482
ltibia 53.9932
lfoot 181.452 12.3732
ltoes 27.518
750
root 13.016 24.4243 3.90091 -357.643 -4.49973 -177.393
lowerback 36.7545 1.62357 1.89111
upperback 13.348 1.3361 -0.102013
thorax -3.40539 -0.394916 -1.47848
lowerneck 0.839226 -0.317368 -2.0072
upperneck -35.9526 -2.71281 3.57417
head -11.8322 -1.16503 1.93323
rclavicle 3.57812e-015 1.27222e-014
rhumerus -11.7307 24.5939 -74.2486
rradius 72.5408
rwrist -44.161
rhand 18.6006 -34.1074
rfingers 7.12502
rthumb 43.2293 -418.272
lclavicle 3.57812e-015 1.27222e-014
lhumerus 12.1166 -37.1547 71.7393
lradius 58.0518
lwrist 40.0603
lhand 22.2979 -19.6911
lfingers 7.12502
lthumb 46.6694 3.11937
rfemur -89.9413 -6.40958 21.1763
rtibia 46.9199
rfoot 172.665 -7.5067
rtoes -15.9842
lfemur 101.163 181.992 162.788
ltibia 52.8968
lfoot 179.903 13.656
ltoes 27.5327
751
root 13.0498 24.5846 4.06009 -361.375 -4.25364 -177.133
lowerback 34.8106 1.70033 1.36427
upperback 13.4416 1.51802 -0.0788065
thorax -2.7977 -0.179122 -1.24344
lowerneck 0.997442 -0.341518 -2.02411
upperneck -36.3839 -2.60439 3.61863
head -12.0485 -1.00599 1.93491
rclavicle 1.59028e-015 -2.38542e-015
rhumerus -12.0073 25.0016 -74.2958
rradius 73.5406
rwrist -42.7232
rhand 19.7538 -33.2165
rfingers 7.12502
rthumb 44.3057 -416.984
lclavicle 1.59028e-015 -2.38542e-015
lhumerus 12.0488 -37.2469 71.8981
lradius 58.9848
lwrist 39.3116
lhand 22.9456 -20.7189
lfingers 7.12502
lthumb 47.2686 1.82803
rfemur -92.7523 -6.04921 22.2558
rtibia 46.4655
rfoot 171.714 -6.7733
rtoes -17.4814
lfemur 99.4801 181.931 163.029
ltibia 52.0256
lfoot 178.471 14.9529
ltoes 27.6125
752
root 13.0915 24.7301 4.2529 -364.809 -4.05204 -176.951
lowerback 32.0881 1.80513 0.783393
upperback 13.7555 1.74425 0.00597358
thorax -1.8329 0.0561509 -0.975507
lowerneck 1.10233 -0.458386 -1.99904
upperneck -36.871 -2.6567 3.60613
head -12.2769 -0.908402 1.92066
rclavicle 1.27222e-014 -1.82882e-014
rhumerus -12.1137 25.2745 -74.3191
rradius 74.5491
rwrist -42.2048
rhand 19.8647 -32.4904
rfingers 7.12502
rthumb 44.409 -416.219
lclavicle 1.27222e-014 -1.82882e-014
lhumerus 11.8439 -37.1547 72.0694
lradius 60.1968
lwrist 39.6292
lhand 23.8068 -21.1704
lfingers 7.12502
lthumb 48.0634 1.01277
rfemur -95.989 -5.40957 23.3804
rtibia 46.3446
rfoot 170.808 -5.91468
rtoes -19.1946
lfemur 97.3414 181.611 163.303
ltibia 51.4687
lfoot 177.19 16.1541
ltoes 27.4953
753
root 13.1386 24.8523 4.4701 -368.122 -3.91286 -176.936
lowerback 29.7233 1.90679 0.309353
upperback 13.7193 1.99077 0.0764454
thorax -0.859432 0.292424 -0.661528
lowerneck 1.09803 -0.621219 -1.93676
upperneck -37.1966 -2.75217 3.55769
head -12.4152 -0.834284 1.88351
rclavicle -8.74653e-015 1.31198e-014
rhumerus -12.0278 25.4209 -74.3068
rradius 75.56
rwrist -42.6
rhand 18.8036 -31.9912
rfingers 7.12502
rthumb 43.419 -416.087
lclavicle -8.74653e-015 1.31198e-014
lhumerus 11.5556 -36.8951 72.1774
lradius 61.6986
lwrist 40.5679
lhand 24.5952 -21.0515
lfingers 7.12502
lthumb 48.7893 0.784501
rfemur -99.2894 -4.49041 24.5298
rtibia 46.6631
rfoot 169.927 -5.02739
rtoes -20.8757
lfemur 94.9577 181.032 163.66
ltibia 51.335
lfoot 176.105 17.2175
ltoes 27.3469
754
root 13.1878 24.9433 4.69902 -371.535 -3.8341 -177.032
lowerback 27.6478 1.99562 -0.0674981
upperback 13.7053 2.23518 0.184792
thorax 0.0395322 0.507 -0.351834
lowerneck 0.965742 -0.805426 -1.88249
upperneck -37.25 -2.8254 3.52412
head -12.4093 -0.765482 1.84383
rclavicle 6.16232e-015 2.78299e-015
rhumerus -11.7996 25.3897 -74.2606
rradius 76.602
rwrist -43.6421
rhand 16.894 -31.7697
rfingers 7.12502
rthumb 41.6314 -416.482
lclavicle 6.16232e-015 2.78299e-015
lhumerus 11.2704 -36.5488 72.1677
lradius 63.3188
lwrist 41.4513
lhand 24.8393 -20.9385
lfingers 7.12502
lthumb 49.0136 0.787116
rfemur -102.279 -3.41951 25.5868
rtibia 47.5112
rfoot 169.047 -4.12855
rtoes -22.2501
lfemur 92.6112 180.273 163.986
ltibia 51.7479
lfoot 175.144 18.0389
ltoes 27.1815
755
root 13.2383 25.0007 4.93311 -375.143 -3.80917 -177.165
lowerback 26.0308 2.09823 -0.414181
upperback 13.714 2.48923 0.342929
thorax 0.771431 0.70304 -0.00645101
lowerneck 0.75429 -1.00644 -1.86008
upperneck -37.0752 -2.89326 3.48114
head -12.288 -0.705786 1.80157
rclavicle -2.50469e-014 4.37326e-015
rhumerus -11.4755 25.1669 -74.1441
rradius 77.6168
rwrist -44.8553
rhand 14.6555 -31.6352
rfingers 7.12502
rthumb 39.5273 -417.002
lclavicle -2.50469e-014 4.37326e-015
lhumerus 11.0866 -36.1991 72.0539
lradius 64.8825
lwrist 41.8358
lhand 24.3313 -21.2446
lfingers 7.12502
lthumb 48.5465 0.709187
rfemur -104.754 -2.28918 26.4818
rtibia 48.9221
rfoot 168.139 -3.28322
rtoes -23.2036
lfemur 90.4876 179.378 164.174
ltibia 52.7737
lfoot 174.273 18.561
ltoes 26.9994
756
root 13.2889 25.0244 5.1675 -378.975 -3.81122 -177.262
lowerback 24.8805 2.23242 -0.796521
upperback 13.7734 2.76418 0.541458
thorax 1.34846 0.885885 0.394549
lowerneck 0.509728 -1.21452 -1.88422
upperneck -36.7161 -2.95245 3.44668
head -12.0808 -0.655891 1.76903
rclavicle -1.78906e-015 3.57812e-015
rhumerus -11.0344 24.7421 -73.9257
rradius 78.522
rwrist -45.777
rhand 12.5272 -31.4052
rfingers 7.12502
rthumb 37.5192 -417.334
lclavicle -1.78906e-015 3.57812e-015
lhumerus 11.1121 -35.9044 71.835
lradius 66.2628
lwrist 41.651
lhand 22.975 -22.1049
lfingers 7.12502
lthumb 47.2958 0.429931
rfemur -106.553 -1.19664 27.1492
rtibia 50.908
rfoot 167.107 -2.52682
rtoes -23.7136
lfemur 88.706 178.397 164.125
ltibia 54.4596
lfoot 173.469 18.7505
ltoes 27.0113
